<?xml version="1.0" encoding="UTF-8" standalone="no"?>
<!-- Uploaded to: SVG Repo, www.svgrepo.com, Generator: SVG Repo Mixer Tools -->

<svg fill="#000000" width="800px" height="800px" viewBox="0 0 64 64" version="1.1" xml:space="preserve" style="fill-rule:evenodd;clip-rule:evenodd;stroke-linejoin:round;stroke-miterlimit:2;" id="svg54" sodipodi:docname="logo.svg" inkscape:version="1.2.2 (b0a8486541, 2022-12-01)" xmlns:inkscape="http://www.inkscape.org/namespaces/inkscape" xmlns:sodipodi="http://sodipodi.sourceforge.net/DTD/sodipodi-0.dtd" xmlns:xlink="http://www.w3.org/1999/xlink" xmlns="http://www.w3.org/2000/svg" xmlns:svg="http://www.w3.org/2000/svg"><defs id="defs58"><linearGradient inkscape:collect="always" id="linearGradient1102"><stop style="stop-color:#00ff00;stop-opacity:1;" offset="0" id="stop1098" /><stop style="stop-color:#0000ff;stop-opacity:1;" offset="1" id="stop1100" /></linearGradient><linearGradient inkscape:collect="always" id="linearGradient1084"><stop style="stop-color:#0000ff;stop-opacity:1;" offset="0" id="stop1082" /><stop style="stop-color:#00ff00;stop-opacity:1;" offset="1" id="stop1080" /></linearGradient><rect x="141.0059" y="94.094073" width="563.86026" height="130.48592" id="rect341" /><linearGradient inkscape:collect="always" xlink:href="#linearGradient1084" id="linearGradient1086" x1="-8.3903713" y1="38.983051" x2="39.576813" y2="38.983051" gradientUnits="userSpaceOnUse" spreadMethod="pad" /><linearGradient inkscape:collect="always" xlink:href="#linearGradient1102" id="linearGradient1094" x1="24.842239" y1="12.211536" x2="39.157761" y2="12.211536" gradientUnits="userSpaceOnUse" spreadMethod="reflect" /></defs><sodipodi:namedview id="namedview56" pagecolor="#ffffff" bordercolor="#666666" borderopacity="1.0" inkscape:showpageshadow="2" inkscape:pageopacity="0.0" inkscape:pagecheckerboard="0" inkscape:deskcolor="#d1d1d1" showgrid="false" inkscape:zoom="0.417193" inkscape:cx="115.05466" inkscape:cy="267.26239" inkscape:window-width="1861" inkscape:window-height="1050" inkscape:window-x="59" inkscape:window-y="255" inkscape:window-maximized="1" inkscape:current-layer="svg54" />





<g id="g501" transform="translate(-9.642239,19.788464)" style="fill-opacity:1.0;fill:url(#linearGradient1094)"><path d="m 353.47957,186.5802 q -4.032,0 -8.832,-0.384 q -4.704,-0.384 -8.832,-1.344 v -64.32 q 4.128,-0.96 9.024,-1.344 q 4.896,-0.48 8.928,-0.48 q 11.04,0 19.296,3.648 q 8.352,3.648 13.056,11.136 q 4.704,7.488 4.704,19.104 q 0,11.424 -4.704,19.008 q -4.608,7.488 -13.056,11.232 q -8.352,3.744 -19.584,3.744 z m 0.768,-8.544 q 13.152,0 19.68,-6.72 q 6.528,-6.816 6.528,-18.72 q 0,-12 -6.432,-18.624 q -6.432,-6.72 -19.488,-6.72 q -3.744,0 -5.856,0.192 q -2.016,0.192 -2.976,0.384 v 49.728 q 0.864,0.096 2.784,0.288 q 1.92,0.192 5.76,0.192 z" id="path484" style="font-weight:500;font-size:96px;line-height:125%;font-family:Ubuntu;-inkscape-font-specification:'Ubuntu, Medium';text-align:center;letter-spacing:0px;word-spacing:0px;text-anchor:middle;white-space:pre;shape-inside:url(#rect341);clip-rule:evenodd;fill-rule:evenodd;stroke-width:1px;stroke-linejoin:miter;stroke-miterlimit:2;fill-opacity:1.0;fill:url(#linearGradient1094)" transform="matrix(0.08,0,0,0.08,-2.0230066,0)" /><path d="m 404.55153,185.9082 v -66.528 h 7.968 q 3.456,3.648 7.2,8.352 q 3.84,4.608 7.776,9.792 q 3.936,5.184 7.68,10.56 q 3.744,5.28 7.008,10.272 q 3.36,4.896 5.856,9.12 v -48.096 h 9.888 v 66.528 h -8.352 q -2.304,-4.224 -5.568,-9.408 q -3.168,-5.184 -6.912,-10.848 q -3.744,-5.664 -7.68,-11.232 q -3.936,-5.568 -7.872,-10.56 q -3.84,-5.088 -7.2,-9.024 v 51.072 z" id="path486" style="font-weight:500;font-size:96px;line-height:125%;font-family:Ubuntu;-inkscape-font-specification:'Ubuntu, Medium';text-align:center;letter-spacing:0px;word-spacing:0px;text-anchor:middle;white-space:pre;shape-inside:url(#rect341);clip-rule:evenodd;fill-rule:evenodd;stroke-width:1px;stroke-linejoin:miter;stroke-miterlimit:2;fill-opacity:1.0;fill:url(#linearGradient1094)" transform="matrix(0.08,0,0,0.08,-2.0230066,0)" /><path d="m 490.27959,187.3482 q -8.16,0 -13.44,-1.728 q -5.184,-1.824 -7.296,-3.072 l 2.976,-8.16 q 2.304,1.344 6.72,2.88 q 4.512,1.536 11.04,1.536 q 7.2,0 10.656,-2.496 q 3.552,-2.496 3.552,-7.488 q 0,-3.84 -2.016,-6.144 q -1.92,-2.304 -5.376,-3.936 q -3.456,-1.632 -8.064,-3.36 q -5.088,-1.92 -9.12,-4.224 q -4.032,-2.304 -6.432,-5.76 q -2.304,-3.552 -2.304,-9.12 q 0,-5.856 2.688,-9.888 q 2.784,-4.128 7.872,-6.24 q 5.088,-2.208 12,-2.208 q 5.952,0 10.752,1.44 q 4.8,1.344 7.584,2.976 l -3.072,8.064 q -2.784,-1.728 -6.624,-2.88 q -3.744,-1.152 -8.352,-1.152 q -5.952,0 -9.408,2.208 q -3.36,2.112 -3.36,7.008 q 0,3.264 1.728,5.376 q 1.824,2.112 4.896,3.648 q 3.168,1.44 7.104,2.976 q 5.952,2.304 10.368,4.8 q 4.416,2.4 6.912,6.144 q 2.496,3.744 2.496,10.08 q 0,6.048 -2.88,10.272 q -2.88,4.128 -8.352,6.336 q -5.472,2.112 -13.248,2.112 z" id="path488" style="font-weight:500;font-size:96px;line-height:125%;font-family:Ubuntu;-inkscape-font-specification:'Ubuntu, Medium';text-align:center;letter-spacing:0px;word-spacing:0px;text-anchor:middle;white-space:pre;shape-inside:url(#rect341);clip-rule:evenodd;fill-rule:evenodd;stroke-width:1px;stroke-linejoin:miter;stroke-miterlimit:2;fill-opacity:1.0;fill:url(#linearGradient1094)" transform="matrix(0.08,0,0,0.08,-2.0230066,0)" /></g><g id="g496" transform="translate(16.40678,-6.983051)" style="fill-opacity:1;fill:url(#linearGradient1086)"><path d="m 24.882933,23.984551 c 9.416,0.179 17.545,10.374 13.732,20.395 c -2.105,5.532 -7.689,9.487 -13.732,9.602 c -6.201,0.04 -12.402,0.04 -18.603,0 c -9.653,-0.183 -17.944,-11.153 -13.383,-21.233 c 2.32,-5.128 7.685,-8.656 13.383,-8.764 c 6.201,-0.04 12.402,-0.04 18.603,0 z m -18.398,3.998 c -7.151,0.046 -13.348,8.061 -9.944,15.586 c 1.694,3.744 5.614,6.334 9.789,6.413 c 6.168,0.039 12.335,0.039 18.503,0 c 6.934,-0.131 12.825,-7.661 10.043,-14.973 c -1.54,-4.049 -5.615,-6.941 -10.044,-7.025 c -6.115,-0.039 -12.231,-10e-4 -18.347,-10e-4 z" style="clip-rule:evenodd;display:inline;fill-rule:nonzero;stroke-linejoin:round;stroke-miterlimit:2;fill-opacity:1;fill:url(#linearGradient1086)" id="path31" /><circle cx="24.690933" cy="38.982552" r="10.015" id="circle33" style="clip-rule:evenodd;display:inline;fill-rule:evenodd;stroke-linejoin:round;stroke-miterlimit:2;fill-opacity:1;fill:url(#linearGradient1086)" /></g></svg>
