<?xml version="1.0" encoding="UTF-8" standalone="no"?>
<!-- Uploaded to: SVG Repo, www.svgrepo.com, Generator: SVG Repo Mixer Tools -->

<svg fill="#000000" width="800px" height="800px" viewBox="0 0 64 64" version="1.1" xml:space="preserve" style="fill-rule:evenodd;clip-rule:evenodd;stroke-linejoin:round;stroke-miterlimit:2;" id="svg54" sodipodi:docname="on.svg" inkscape:version="1.2.2 (b0a8486541, 2022-12-01)" xmlns:inkscape="http://www.inkscape.org/namespaces/inkscape" xmlns:sodipodi="http://sodipodi.sourceforge.net/DTD/sodipodi-0.dtd" xmlns:xlink="http://www.w3.org/1999/xlink" xmlns="http://www.w3.org/2000/svg" xmlns:svg="http://www.w3.org/2000/svg"><defs id="defs58"><linearGradient inkscape:collect="always" id="linearGradient1084"><stop style="stop-color:#0000ff;stop-opacity:1;" offset="0" id="stop1082" /><stop style="stop-color:#00ff00;stop-opacity:1;" offset="1" id="stop1080" /></linearGradient><rect x="141.0059" y="94.094073" width="563.86026" height="130.48592" id="rect341" /><linearGradient inkscape:collect="always" xlink:href="#linearGradient1084" id="linearGradient1086" x1="-8.3903713" y1="38.983051" x2="39.576813" y2="38.983051" gradientUnits="userSpaceOnUse" spreadMethod="pad" /></defs><sodipodi:namedview id="namedview56" pagecolor="#ffffff" bordercolor="#666666" borderopacity="1.0" inkscape:showpageshadow="2" inkscape:pageopacity="0.0" inkscape:pagecheckerboard="0" inkscape:deskcolor="#d1d1d1" showgrid="false" inkscape:zoom="0.417193" inkscape:cx="-7.1909164" inkscape:cy="459.02017" inkscape:window-width="1861" inkscape:window-height="1050" inkscape:window-x="59" inkscape:window-y="255" inkscape:window-maximized="1" inkscape:current-layer="svg54" />





<g id="g496" transform="translate(16.40678,-6.983051)" style="fill-opacity:1;fill:url(#linearGradient1086)"><path d="m 24.882933,23.984551 c 9.416,0.179 17.545,10.374 13.732,20.395 c -2.105,5.532 -7.689,9.487 -13.732,9.602 c -6.201,0.04 -12.402,0.04 -18.603,0 c -9.653,-0.183 -17.944,-11.153 -13.383,-21.233 c 2.32,-5.128 7.685,-8.656 13.383,-8.764 c 6.201,-0.04 12.402,-0.04 18.603,0 z m -18.398,3.998 c -7.151,0.046 -13.348,8.061 -9.944,15.586 c 1.694,3.744 5.614,6.334 9.789,6.413 c 6.168,0.039 12.335,0.039 18.503,0 c 6.934,-0.131 12.825,-7.661 10.043,-14.973 c -1.54,-4.049 -5.615,-6.941 -10.044,-7.025 c -6.115,-0.039 -12.231,-10e-4 -18.347,-10e-4 z" style="clip-rule:evenodd;display:inline;fill-rule:nonzero;stroke-linejoin:round;stroke-miterlimit:2;fill-opacity:1;fill:url(#linearGradient1086)" id="path31" /><circle cx="24.690933" cy="38.982552" r="10.015" id="circle33" style="clip-rule:evenodd;display:inline;fill-rule:evenodd;stroke-linejoin:round;stroke-miterlimit:2;fill-opacity:1;fill:url(#linearGradient1086)" /></g></svg>
